<svg width="32" height="32" viewBox="0 0 32 32" fill="none" xmlns="http://www.w3.org/2000/svg">
    <path fill-rule="evenodd" clip-rule="evenodd" d="M16 2C8.26875 2 2 8.425 2 16.3563C2 22.7 6.0125 28.075 11.575 29.975C12.275 30.1063 12.5312 29.6625 12.5312 29.2812C12.5312 28.9375 12.5187 28.0375 12.5125 26.8375C8.61875 27.7062 7.79375 24.9125 7.79375 24.9125C7.15625 23.2563 6.2375 22.8125 6.2375 22.8125C4.96875 21.9187 6.33125 21.9375 6.33125 21.9375C7.7375 22.0375 8.475 23.4188 8.475 23.4188C9.725 25.6125 11.75 24.9812 12.55 24.6125C12.675 23.6875 13.0375 23.05 13.4375 22.6938C10.3312 22.3313 7.0625 21.1 7.0625 15.6C7.0625 14.0313 7.60625 12.75 8.5 11.75C8.35625 11.3875 7.875 9.925 8.6375 7.95C8.6375 7.95 9.8125 7.5625 12.4875 9.41875C13.6063 9.1 14.8 8.94375 15.9937 8.9375C17.1812 8.94375 18.3813 9.1 19.5 9.41875C22.175 7.5625 23.3438 7.95 23.3438 7.95C24.1062 9.925 23.625 11.3875 23.4813 11.75C24.375 12.7563 24.9188 14.0375 24.9188 15.6C24.9188 21.1125 21.6437 22.325 18.525 22.6812C19.025 23.125 19.475 24 19.475 25.3375C19.475 27.2562 19.4562 28.8062 19.4562 29.275C19.4562 29.6562 19.7063 30.1062 20.4188 29.9625C25.9938 28.0687 30 22.6938 30 16.3563C30 8.425 23.7312 2 16 2Z" fill="black" />
</svg>
    