<svg width="95" height="95" viewBox="0 0 95 95" fill="none" xmlns="http://www.w3.org/2000/svg">
    <g filter="url(#filter0_d_533_335)">
        <circle cx="37.5" cy="37.5" r="32.5" fill="white" />
    </g>
    <path fill-rule="evenodd" clip-rule="evenodd" d="M47.4608 28.4592C47.4608 29.5197 46.601 30.3792 45.5408 30.3792C44.4805 30.3792 43.6208 29.5197 43.6208 28.4592C43.6208 27.3987 44.4805 26.5392 45.5408 26.5392C46.6012 26.5392 47.4608 27.3987 47.4608 28.4592ZM37 42.3333C34.0545 42.3333 31.6667 39.9455 31.6667 37C31.6667 34.0545 34.0545 31.6667 37 31.6667C39.9455 31.6667 42.3333 34.0545 42.3333 37C42.3333 39.9455 39.9455 42.3333 37 42.3333ZM37 28.7838C32.4622 28.7838 28.7838 32.4622 28.7838 37C28.7838 41.5378 32.4622 45.2162 37 45.2162C41.5378 45.2162 45.2162 41.5378 45.2162 37C45.2162 32.4622 41.5378 28.7838 37 28.7838ZM37 23.883C41.2723 23.883 41.7782 23.8993 43.4653 23.9762C45.0252 24.0475 45.8725 24.308 46.4363 24.5273C47.183 24.8175 47.716 25.1642 48.276 25.7242C48.836 26.284 49.1827 26.817 49.473 27.564C49.692 28.1278 49.9527 28.975 50.024 30.535C50.101 32.2222 50.1173 32.7282 50.1173 37.0005C50.1173 41.2728 50.101 41.7787 50.024 43.4657C49.9527 45.0257 49.6922 45.873 49.473 46.4368C49.1827 47.1835 48.836 47.7165 48.276 48.2765C47.7162 48.8365 47.1833 49.1832 46.4363 49.4735C45.8725 49.6925 45.0252 49.9532 43.4653 50.0245C41.7782 50.1015 41.2723 50.1178 37 50.1178C32.7275 50.1178 32.2215 50.1015 30.5345 50.0245C28.9745 49.9532 28.1272 49.6927 27.5635 49.4735C26.8168 49.1832 26.2838 48.8365 25.7238 48.2765C25.164 47.7168 24.817 47.1838 24.5268 46.4368C24.3077 45.873 24.047 45.0257 23.9757 43.4657C23.8988 41.7785 23.8825 41.2725 23.8825 37.0005C23.8825 32.7282 23.8988 32.2222 23.9757 30.535C24.047 28.975 24.3075 28.1278 24.5268 27.564C24.817 26.8173 25.1638 26.2842 25.7238 25.7242C26.2835 25.1642 26.8165 24.8175 27.5635 24.5273C28.1272 24.3082 28.9745 24.0475 30.5345 23.9762C32.2218 23.8993 32.7277 23.883 37 23.883ZM37 21C32.6547 21 32.1097 21.0185 30.4032 21.0962C28.7002 21.174 27.537 21.4445 26.5195 21.84C25.4672 22.2487 24.575 22.796 23.6855 23.6855C22.796 24.575 22.2487 25.4672 21.84 26.5195C21.4445 27.5372 21.174 28.7002 21.0962 30.4032C21.0185 32.1097 21 32.6547 21 37C21 41.3452 21.0185 41.8903 21.0962 43.5968C21.174 45.2997 21.4445 46.4627 21.84 47.4805C22.2487 48.5327 22.796 49.425 23.6855 50.3145C24.575 51.204 25.4672 51.751 26.5195 52.16C27.5372 52.5555 28.7002 52.826 30.4032 52.9037C32.1097 52.9815 32.6547 53 37 53C41.3452 53 41.8903 52.9815 43.5968 52.9037C45.2997 52.826 46.4627 52.5555 47.4805 52.16C48.5327 51.751 49.425 51.204 50.3145 50.3145C51.204 49.425 51.751 48.5327 52.16 47.4805C52.5555 46.4627 52.826 45.2997 52.9037 43.5968C52.9815 41.8903 53 41.3452 53 37C53 32.6547 52.9815 32.1097 52.9037 30.4032C52.826 28.7002 52.5555 27.5372 52.16 26.5195C51.751 25.4672 51.204 24.575 50.3145 23.6855C49.425 22.796 48.5327 22.249 47.4805 21.84C46.4627 21.4445 45.2997 21.174 43.5968 21.0962C41.8903 21.0185 41.3452 21 37 21Z" fill="url(#paint0_radial_533_335)" />
    <defs>
        <filter id="filter0_d_533_335" x="0" y="0" width="95" height="95" filterUnits="userSpaceOnUse" color-interpolation-filters="sRGB">
            <feFlood flood-opacity="0" result="BackgroundImageFix" />
            <feColorMatrix in="SourceAlpha" type="matrix" values="0 0 0 0 0 0 0 0 0 0 0 0 0 0 0 0 0 0 127 0" result="hardAlpha" />
            <feOffset dx="10" dy="10" />
            <feGaussianBlur stdDeviation="7.5" />
            <feComposite in2="hardAlpha" operator="out" />
            <feColorMatrix type="matrix" values="0 0 0 0 0 0 0 0 0 0 0 0 0 0 0 0 0 0 0.1 0" />
            <feBlend mode="normal" in2="BackgroundImageFix" result="effect1_dropShadow_533_335" />
            <feBlend mode="normal" in="SourceGraphic" in2="effect1_dropShadow_533_335" result="shape" />
        </filter>
        <radialGradient id="paint0_radial_533_335" cx="0" cy="0" r="1" gradientUnits="userSpaceOnUse" gradientTransform="translate(25.7778 53.1111) scale(40.888)">
            <stop stop-color="#FFB140" />
            <stop offset="0.2559" stop-color="#FF5445" />
            <stop offset="0.599" stop-color="#FC2B82" />
            <stop offset="1" stop-color="#8E40B7" />
        </radialGradient>
    </defs>
</svg>
    