<svg width="29" height="29" viewBox="0 0 29 29" fill="none" xmlns="http://www.w3.org/2000/svg">
    <path fill-rule="evenodd" clip-rule="evenodd" d="M15.4794 22.3381L15.4794 15.5561L22.3049 15.5561C25.9719 15.5561 28.9988 18.6925 28.9988 22.3613C28.998 23.2339 28.8256 24.0978 28.4913 24.9036C28.157 25.7095 27.6674 26.4415 27.0505 27.058C26.4336 27.6744 25.7014 28.1632 24.8958 28.4964C24.0901 28.8297 23.2268 29.0008 22.3551 29C18.6862 29 15.4833 26.003 15.4833 22.3381L15.4794 22.3381Z" fill="#7FE27D" />
    <path fill-rule="evenodd" clip-rule="evenodd" d="M15.4324 13.4516L15.4324 6.64062C15.4324 2.97182 18.6836 4.47734e-07 22.3545 6.91683e-07C24.115 -0.00102741 25.8039 0.697641 27.05 1.94247C28.2961 3.1873 28.9976 4.87644 29.0001 6.63869C28.9982 10.3056 26.0235 13.4536 22.3545 13.4536L15.4324 13.4536L15.4324 13.4516Z" fill="#7FE27D" />
    <path fill-rule="evenodd" clip-rule="evenodd" d="M6.64557 13.5917C2.97658 13.5917 -1.07634e-06 10.2172 -1.0327e-06 6.60066C-9.89065e-07 2.98413 2.97465 0.0510245 6.64557 0.0510248C10.3165 0.0510251 13.5155 2.93573 13.5155 6.55226C13.5155 8.40311 13.4672 13.5917 13.4672 13.5917L6.64557 13.5917Z" fill="#7FE27D" />
    <path fill-rule="evenodd" clip-rule="evenodd" d="M9.43284e-05 22.3555C9.43743e-05 18.7022 2.99408 15.5542 6.66499 15.5542C8.48884 15.5542 13.5214 15.5929 13.5214 15.5929L13.5214 22.3555C13.5214 26.0069 10.3166 28.969 6.64565 28.969C2.97667 28.969 9.42826e-05 26.0069 9.43284e-05 22.3555Z" fill="#7FE27D" />
</svg>
    